<svg version="1.1" width="33" height="33" viewBox="-1 -1 33 33" xmlns="http://www.w3.org/2000/svg" xmlns:xlink="http://www.w3.org/1999/xlink">
  <!-- Exported by Scratch - http://scratch.mit.edu/ -->
  <g id="ID0.40384478121995926" transform="matrix(1, 0, 0, 1, -222, -166)">
    <path id="ID0.8580881836824119" fill="#D3BD63" d="M 19.400 7.100 C 24.090 7.100 28.340 9.005 31.418 12.082 C 34.495 15.160 36.400 19.410 36.400 24.100 C 36.400 28.790 34.495 33.040 31.418 36.118 C 28.340 39.195 24.090 41.100 19.400 41.100 C 14.710 41.100 10.460 39.195 7.382 36.118 C 4.305 33.040 2.400 28.790 2.400 24.100 C 2.400 19.410 4.305 15.160 7.382 12.082 C 10.460 9.005 14.710 7.100 19.400 7.100 Z " transform="matrix(0.9191176295280457, 0, 0, 0.9191176295280457, 220.2, 159.6)"/>
    <path id="ID0.09172595059499145" fill="#E6E6E6" d="M 19.400 10.900 C 23.014 10.900 26.289 12.368 28.661 14.739 C 31.032 17.111 32.500 20.386 32.500 24 C 32.500 27.614 31.032 30.889 28.661 33.261 C 26.289 35.632 23.014 37.100 19.400 37.100 C 15.786 37.100 12.511 35.632 10.139 33.261 C 7.768 30.889 6.300 27.614 6.300 24 C 6.300 20.386 7.768 17.111 10.139 14.739 C 12.511 12.368 15.786 10.900 19.400 10.900 Z " transform="matrix(0.9191176295280457, 0, 0, 0.9191176295280457, 220.2, 159.6)"/>
    <path id="ID0.9163463339209557" fill="none" d="M 7.700 17.800 L 31 17.800 L 31 35.500 L 7.700 35.500 L 7.700 17.800 Z " transform="matrix(0.9191176295280457, 0, 0, 0.9191176295280457, 220.2, 159.6)"/>
    <text id="ID0.2589400480501354" fill="#D3BD63" font-family="Helvetica" font-size="17" transform="matrix(0.7032042741775513, 0, 0, 0.7032042741775513, 224.55, 173)">1R$</text>
  </g>
</svg>