<svg version="1.1" width="480" height="196" viewBox="-1 -1 480 196" xmlns="http://www.w3.org/2000/svg" xmlns:xlink="http://www.w3.org/1999/xlink">
  <defs>
    <linearGradient id="grad_1" x1="-973.8119" y1="250.1507" x2="-973.8119" y2="298.3801" gradientUnits="userSpaceOnUse">
      <stop offset="0" stop-color="#CCCCCC"/>
      <stop offset="1" stop-color="#666666"/>
    </linearGradient>
    <linearGradient id="grad_2" x1="-1040.0872" y1="250.1507" x2="-1040.0872" y2="298.3801" gradientUnits="userSpaceOnUse">
      <stop offset="0" stop-color="#CCCCCC"/>
      <stop offset="1" stop-color="#666666"/>
    </linearGradient>
    <linearGradient id="grad_3" x1="-1238.9128" y1="250.1507" x2="-1238.9128" y2="298.3801" gradientUnits="userSpaceOnUse">
      <stop offset="0" stop-color="#CCCCCC"/>
      <stop offset="1" stop-color="#666666"/>
    </linearGradient>
    <linearGradient id="grad_4" x1="-1305.1881" y1="250.1507" x2="-1305.1881" y2="298.3801" gradientUnits="userSpaceOnUse">
      <stop offset="0" stop-color="#CCCCCC"/>
      <stop offset="1" stop-color="#666666"/>
    </linearGradient>
    <linearGradient id="grad_5" x1="432.5" y1="268.7887" x2="432.5" y2="288.3568" gradientUnits="userSpaceOnUse">
      <stop offset="0" stop-color="#CCCCCC"/>
      <stop offset="1" stop-color="#666666"/>
    </linearGradient>
    <linearGradient id="grad_6" x1="474.5" y1="268.7887" x2="474.5" y2="288.3568" gradientUnits="userSpaceOnUse">
      <stop offset="0" stop-color="#CCCCCC"/>
      <stop offset="1" stop-color="#666666"/>
    </linearGradient>
    <linearGradient id="grad_7" x1="432.5" y1="297.8592" x2="432.5" y2="317.4272" gradientUnits="userSpaceOnUse">
      <stop offset="0" stop-color="#CCCCCC"/>
      <stop offset="1" stop-color="#666666"/>
    </linearGradient>
    <linearGradient id="grad_8" x1="474.5" y1="297.8592" x2="474.5" y2="317.4272" gradientUnits="userSpaceOnUse">
      <stop offset="0" stop-color="#CCCCCC"/>
      <stop offset="1" stop-color="#666666"/>
    </linearGradient>
    <linearGradient id="grad_9" x1="453.5" y1="326.2535" x2="453.5" y2="345.8216" gradientUnits="userSpaceOnUse">
      <stop offset="0" stop-color="#CCCCCC"/>
      <stop offset="1" stop-color="#666666"/>
    </linearGradient>
    <linearGradient id="grad_10" x1="-1106.3624" y1="250.1507" x2="-1106.3624" y2="298.3801" gradientUnits="userSpaceOnUse">
      <stop offset="0" stop-color="#CCCCCC"/>
      <stop offset="1" stop-color="#666666"/>
    </linearGradient>
    <linearGradient id="grad_11" x1="-1172.6376" y1="250.1507" x2="-1172.6376" y2="298.3801" gradientUnits="userSpaceOnUse">
      <stop offset="0" stop-color="#CCCCCC"/>
      <stop offset="1" stop-color="#666666"/>
    </linearGradient>
  </defs>
  <!-- Exported by Scratch - http://scratch.mit.edu/ -->
  <g id="ID0.7191068902611732" transform="matrix(1, 0, 0, 1, 0, -107)">
    <path id="ID0.7866091215983033" fill="#29ABE2" d="M -0.500 206.300 L 499.500 206.300 L 499.500 244.100 L -0.500 244.100 L -0.500 206.300 Z " transform="matrix(0.9540872573852539, 0, 0, 0.928200900554657, 2, -83.5)"/>
    <path id="ID0.010533896740525961" fill="#0071BC" d="M 287 207.500 C 261.900 225.100 252.800 231.800 200 244.200 C 54.500 246.300 26.100 236.700 26.100 236.700 L 175.400 206.800 L 248.800 206.200 C 248.800 206.100 271 206.700 287 207.500 Z " transform="matrix(0.9540872573852539, 0, 0, 0.928200900554657, 2, -83.5)"/>
    <path id="ID0.7887788801454008" fill="#0071BC" d="M -1 244.400 L 499 244.400 L 499 274 L -1 274 L -1 244.400 Z " transform="matrix(0.9540872573852539, 0, 0, 0.928200900554657, 2, -83.5)"/>
    <path id="ID0.2558954474516213" fill="#D0E0E0" d="M -1 262 L 500 262 L 500 356 L -1 356 L -1 262 Z " transform="matrix(0.9540872573852539, 0, 0, 0.928200900554657, 2, -79.5)"/>
    <path id="ID0.19069596799090505" fill="url(#grad_1)" d="M 24.200 280 L 65.400 280 C 69.400 280 72.600 283.200 72.600 287.200 L 72.600 339.300 C 72.600 343.300 69.400 346.500 65.400 346.500 L 24.200 346.500 C 20.200 346.500 17 343.300 17 339.300 L 17 287.200 C 17 283.200 20.200 280 24.200 280 Z " transform="matrix(0.9540872573852539, 0, 0, 0.928200900554657, 2, -90.5)"/>
    <path id="ID0.6555292089469731" fill="url(#grad_2)" d="M 90.500 280 L 131.700 280 C 135.700 280 138.900 283.200 138.900 287.200 L 138.900 339.300 C 138.900 343.300 135.700 346.500 131.700 346.500 L 90.500 346.500 C 86.500 346.500 83.300 343.300 83.300 339.300 L 83.300 287.200 C 83.300 283.200 86.500 280 90.500 280 Z " transform="matrix(0.9540872573852539, 0, 0, 0.928200900554657, 2, -90.5)"/>
    <path id="ID0.2718228893354535" fill="url(#grad_3)" d="M 289.300 280 L 330.500 280 C 334.500 280 337.700 283.200 337.700 287.200 L 337.700 339.300 C 337.700 343.300 334.500 346.500 330.500 346.500 L 289.300 346.500 C 285.300 346.500 282.100 343.300 282.100 339.300 L 282.100 287.200 C 282.100 283.200 285.300 280 289.300 280 Z " transform="matrix(0.9540872573852539, 0, 0, 0.928200900554657, 2, -90.5)"/>
    <path id="ID0.056014486122876406" fill="url(#grad_4)" d="M 355.600 280 L 396.800 280 C 400.800 280 404 283.200 404 287.200 L 404 339.300 C 404 343.300 400.800 346.500 396.800 346.500 L 355.600 346.500 C 351.600 346.500 348.400 343.300 348.400 339.300 L 348.400 287.200 C 348.400 283.200 351.600 280 355.600 280 Z " transform="matrix(0.9540872573852539, 0, 0, 0.928200900554657, 2, -90.5)"/>
    <g id="ID0.4742586459033191" transform="matrix(1, 0, 0, 1, 1, 111)">
      <path id="ID0.8554037646390498" fill="url(#grad_5)" d="M 432.500 268.100 C 437.052 268.100 441.177 269.355 444.164 271.383 C 447.151 273.410 449 276.210 449 279.300 C 449 282.390 447.151 285.190 444.164 287.217 C 441.177 289.245 437.052 290.500 432.500 290.500 C 427.948 290.500 423.823 289.245 420.836 287.217 C 417.849 285.190 416 282.390 416 279.300 C 416 276.210 417.849 273.410 420.836 271.383 C 423.823 269.355 427.948 268.100 432.500 268.100 Z " transform="matrix(0.9540872573852539, 0, 0, 0.928200900554657, 1, -192.7)"/>
      <path id="ID0.9092574384994805" fill="#B1BFBF" d="M 432.500 268.100 C 437.052 268.100 441.177 269.355 444.164 271.383 C 447.151 273.410 449 276.210 449 279.300 C 449 282.390 447.151 285.190 444.164 287.217 C 441.177 289.245 437.052 290.500 432.500 290.500 C 427.948 290.500 423.823 289.245 420.836 287.217 C 417.849 285.190 416 282.390 416 279.300 C 416 276.210 417.849 273.410 420.836 271.383 C 423.823 269.355 427.948 268.100 432.500 268.100 Z " transform="matrix(0.9540872573852539, 0, 0, 0.928200900554657, 1, -192.7)"/>
    </g>
    <g id="ID0.5956256305798888" transform="matrix(1, 0, 0, 1, 1, 111)">
      <path id="ID0.4046242507174611" fill="url(#grad_6)" d="M 474.500 268.100 C 479.052 268.100 483.177 269.355 486.164 271.383 C 489.151 273.410 491 276.210 491 279.300 C 491 282.390 489.151 285.190 486.164 287.217 C 483.177 289.245 479.052 290.500 474.500 290.500 C 469.948 290.500 465.823 289.245 462.836 287.217 C 459.849 285.190 458 282.390 458 279.300 C 458 276.210 459.849 273.410 462.836 271.383 C 465.823 269.355 469.948 268.100 474.500 268.100 Z " transform="matrix(0.9540872573852539, 0, 0, 0.928200900554657, 1, -192.7)"/>
      <path id="ID0.9906531935557723" fill="#B1BFBF" d="M 474.500 268.100 C 479.052 268.100 483.177 269.355 486.164 271.383 C 489.151 273.410 491 276.210 491 279.300 C 491 282.390 489.151 285.190 486.164 287.217 C 483.177 289.245 479.052 290.500 474.500 290.500 C 469.948 290.500 465.823 289.245 462.836 287.217 C 459.849 285.190 458 282.390 458 279.300 C 458 276.210 459.849 273.410 462.836 271.383 C 465.823 269.355 469.948 268.100 474.500 268.100 Z " transform="matrix(0.9540872573852539, 0, 0, 0.928200900554657, 1, -192.7)"/>
    </g>
    <g id="ID0.8955923435278237" transform="matrix(1, 0, 0, 1, 1, 111)">
      <path id="ID0.994316354393959" fill="url(#grad_7)" d="M 432.500 297.100 C 437.052 297.100 441.177 298.355 444.164 300.383 C 447.151 302.410 449 305.210 449 308.300 C 449 311.390 447.151 314.190 444.164 316.217 C 441.177 318.245 437.052 319.500 432.500 319.500 C 427.948 319.500 423.823 318.245 420.836 316.217 C 417.849 314.190 416 311.390 416 308.300 C 416 305.210 417.849 302.410 420.836 300.383 C 423.823 298.355 427.948 297.100 432.500 297.100 Z " transform="matrix(0.9540872573852539, 0, 0, 0.928200900554657, 1, -192.7)"/>
      <path id="ID0.19122929498553276" fill="#B1BFBF" d="M 432.500 297.100 C 437.052 297.100 441.177 298.355 444.164 300.383 C 447.151 302.410 449 305.210 449 308.300 C 449 311.390 447.151 314.190 444.164 316.217 C 441.177 318.245 437.052 319.500 432.500 319.500 C 427.948 319.500 423.823 318.245 420.836 316.217 C 417.849 314.190 416 311.390 416 308.300 C 416 305.210 417.849 302.410 420.836 300.383 C 423.823 298.355 427.948 297.100 432.500 297.100 Z " transform="matrix(0.9540872573852539, 0, 0, 0.928200900554657, 1, -192.7)"/>
    </g>
    <g id="ID0.9240285605192184" transform="matrix(1, 0, 0, 1, 1, 111)">
      <path id="ID0.11474682204425335" fill="url(#grad_8)" d="M 474.500 297.100 C 479.052 297.100 483.177 298.355 486.164 300.383 C 489.151 302.410 491 305.210 491 308.300 C 491 311.390 489.151 314.190 486.164 316.217 C 483.177 318.245 479.052 319.500 474.500 319.500 C 469.948 319.500 465.823 318.245 462.836 316.217 C 459.849 314.190 458 311.390 458 308.300 C 458 305.210 459.849 302.410 462.836 300.383 C 465.823 298.355 469.948 297.100 474.500 297.100 Z " transform="matrix(0.9540872573852539, 0, 0, 0.928200900554657, 1, -192.7)"/>
      <path id="ID0.04882409842684865" fill="#B1BFBF" d="M 474.500 297.100 C 479.052 297.100 483.177 298.355 486.164 300.383 C 489.151 302.410 491 305.210 491 308.300 C 491 311.390 489.151 314.190 486.164 316.217 C 483.177 318.245 479.052 319.500 474.500 319.500 C 469.948 319.500 465.823 318.245 462.836 316.217 C 459.849 314.190 458 311.390 458 308.300 C 458 305.210 459.849 302.410 462.836 300.383 C 465.823 298.355 469.948 297.100 474.500 297.100 Z " transform="matrix(0.9540872573852539, 0, 0, 0.928200900554657, 1, -192.7)"/>
    </g>
    <g id="ID0.38811440765857697" transform="matrix(1, 0, 0, 1, 1, 111)">
      <path id="ID0.7045839028432965" fill="url(#grad_9)" d="M 453.500 325.500 C 458.052 325.500 462.177 326.755 465.164 328.783 C 468.151 330.810 470 333.610 470 336.700 C 470 339.790 468.151 342.590 465.164 344.617 C 462.177 346.645 458.052 347.900 453.500 347.900 C 448.948 347.900 444.823 346.645 441.836 344.617 C 438.849 342.590 437 339.790 437 336.700 C 437 333.610 438.849 330.810 441.836 328.783 C 444.823 326.755 448.948 325.500 453.500 325.500 Z " transform="matrix(0.9540872573852539, 0, 0, 0.928200900554657, 1, -192.7)"/>
      <path id="ID0.19928485387936234" fill="#B1BFBF" d="M 453.500 325.500 C 458.052 325.500 462.177 326.755 465.164 328.783 C 468.151 330.810 470 333.610 470 336.700 C 470 339.790 468.151 342.590 465.164 344.617 C 462.177 346.645 458.052 347.900 453.500 347.900 C 448.948 347.900 444.823 346.645 441.836 344.617 C 438.849 342.590 437 339.790 437 336.700 C 437 333.610 438.849 330.810 441.836 328.783 C 444.823 326.755 448.948 325.500 453.500 325.500 Z " transform="matrix(0.9540872573852539, 0, 0, 0.928200900554657, 1, -192.7)"/>
    </g>
    <path id="ID0.11598075833171606" fill="none" stroke="#4B5252" stroke-width="1.6445" d="M 486.700 353.600 L 13.300 353.600 C 8.800 353.600 5 349.900 5 345.300 L 5 273.200 C 5 268.700 8.700 264.900 13.300 264.900 L 486.800 264.900 C 491.300 264.900 495.100 268.600 495.100 273.200 L 495.100 345.300 C 495 349.900 491.300 353.600 486.700 353.600 Z " transform="matrix(0.9672961235046387, 0, 0, 0.928200900554657, -3, -84.5)"/>
    <path id="ID0.19966592965647578" fill="url(#grad_10)" d="M 156.700 280 L 198 280 C 202 280 205.200 283.200 205.200 287.200 L 205.200 339.300 C 205.200 343.300 202 346.500 198 346.500 L 156.800 346.500 C 152.800 346.500 149.600 343.300 149.600 339.300 L 149.600 287.200 C 149.600 283.200 152.800 280 156.700 280 Z " transform="matrix(0.9540872573852539, 0, 0, 0.928200900554657, 2, -90.5)"/>
    <path id="ID0.7678942801430821" fill="url(#grad_11)" d="M 223 280 L 264.200 280 C 268.200 280 271.400 283.200 271.400 287.200 L 271.400 339.300 C 271.400 343.300 268.200 346.500 264.200 346.500 L 223 346.500 C 219 346.500 215.800 343.300 215.800 339.300 L 215.800 287.200 C 215.800 283.200 219.100 280 223 280 Z " transform="matrix(0.9540872573852539, 0, 0, 0.928200900554657, 2, -90.5)"/>
    <g id="ID0.539894787594676">
      <path id="ID0.2879630522802472" fill="#B1BFBF" d="M 24.100 282 L 65.600 282 C 69.500 282 72.700 285.200 72.700 289.100 L 72.700 339.500 C 72.700 343.400 69.500 346.600 65.600 346.600 L 24.100 346.600 C 20.200 346.600 17 343.400 17 339.500 L 17 289.100 C 17 285.200 20.200 282 24.100 282 Z " transform="matrix(0.9540872573852539, 0, 0, 0.928200900554657, 2, -90.5)"/>
      <path id="ID0.5429233442991972" fill="#B1BFBF" d="M 90.400 282 L 131.900 282 C 135.800 282 139 285.200 139 289.100 L 139 339.500 C 139 343.400 135.800 346.600 131.900 346.600 L 90.400 346.600 C 86.500 346.600 83.300 343.400 83.300 339.500 L 83.300 289.100 C 83.300 285.200 86.500 282 90.400 282 Z " transform="matrix(0.9540872573852539, 0, 0, 0.928200900554657, 2, -90.5)"/>
      <path id="ID0.38599566742777824" fill="#B1BFBF" d="M 289.200 282 L 330.700 282 C 334.600 282 337.800 285.200 337.800 289.100 L 337.800 339.500 C 337.800 343.400 334.600 346.600 330.700 346.600 L 289.200 346.600 C 285.300 346.600 282.100 343.400 282.100 339.500 L 282.100 289.100 C 282.100 285.200 285.300 282 289.200 282 Z " transform="matrix(0.9540872573852539, 0, 0, 0.928200900554657, 2, -90.5)"/>
      <path id="ID0.07520198309794068" fill="#B1BFBF" d="M 355.500 282 L 397 282 C 400.900 282 404.100 285.200 404.100 289.100 L 404.100 339.500 C 404.100 343.400 400.900 346.600 397 346.600 L 355.500 346.600 C 351.600 346.600 348.400 343.400 348.400 339.500 L 348.400 289.100 C 348.400 285.200 351.600 282 355.500 282 Z " transform="matrix(0.9540872573852539, 0, 0, 0.928200900554657, 2, -90.5)"/>
      <path id="ID0.8246716875582933" fill="#B1BFBF" d="M 156.600 282 L 198.100 282 C 202 282 205.200 285.200 205.200 289.100 L 205.200 339.500 C 205.200 343.400 202 346.600 198.100 346.600 L 156.600 346.600 C 152.700 346.600 149.500 343.400 149.500 339.500 L 149.500 289.100 C 149.600 285.200 152.700 282 156.600 282 Z " transform="matrix(0.9540872573852539, 0, 0, 0.928200900554657, 2, -90.5)"/>
      <path id="ID0.33886351995170116" fill="#B1BFBF" d="M 222.900 282 L 264.400 282 C 268.300 282 271.500 285.200 271.500 289.100 L 271.500 339.500 C 271.500 343.400 268.300 346.600 264.400 346.600 L 222.900 346.600 C 219 346.600 215.800 343.400 215.800 339.500 L 215.800 289.100 C 215.800 285.200 219 282 222.900 282 Z " transform="matrix(0.9540872573852539, 0, 0, 0.928200900554657, 2, -90.5)"/>
    </g>
  </g>
</svg>