<?xml version="1.0" encoding="utf-8"?>
<!-- Generator: Adobe Illustrator 22.0.1, SVG Export Plug-In . SVG Version: 6.00 Build 0)  -->
<svg version="1.1" baseProfile="basic" id="Camada_1"
	 xmlns="http://www.w3.org/2000/svg" xmlns:xlink="http://www.w3.org/1999/xlink" x="0px" y="0px" viewBox="0 0 127 33.7"
	 xml:space="preserve">
<g>
	<path fill="#006837" stroke="#F2F2F2" stroke-width="2" stroke-miterlimit="10" d="M112.5,30.2h-98c-5.3,0-9.7-4.4-9.7-9.7v-7.4
		c0-5.3,4.4-9.7,9.7-9.7h98c5.3,0,9.7,4.4,9.7,9.7v7.4C122.2,25.9,117.9,30.2,112.5,30.2z"/>
	<g>
		<path fill="#D0E0E0" d="M16.2,14h4c0,0.1,0,0.3,0,0.4c0,0.1,0,0.2,0,0.2c0,0.1,0,0.2,0,0.2h-3V17h2.4c0,0.1,0,0.1,0,0.2
			c0,0.1,0,0.2,0,0.2c0,0.1,0,0.2,0,0.2s0,0.2,0,0.2h-2.4v2.5h3c0,0.1,0,0.3,0,0.4c0,0.1,0,0.2,0,0.2c0,0.1,0,0.2,0,0.2h-4.1V14z"/>
		<path fill="#D0E0E0" d="M21.9,14c0.1,0,0.2,0,0.2,0c0.1,0,0.2,0,0.2,0s0.2,0,0.2,0s0.2,0,0.2,0l3.2,5.5V14c0.1,0,0.2,0,0.3,0
			s0.2,0,0.3,0c0.1,0,0.2,0,0.2,0s0.2,0,0.2,0v7.3c-0.1,0-0.2,0-0.2,0c-0.1,0-0.2,0-0.2,0s-0.2,0-0.2,0c-0.1,0-0.2,0-0.2,0l-3.2-5.4
			v5.4c-0.1,0-0.2,0-0.2,0c-0.1,0-0.2,0-0.2,0c-0.1,0-0.2,0-0.3,0c-0.1,0-0.2,0-0.2,0V14z"/>
		<path fill="#D0E0E0" d="M30.4,14.9h-1.9c0-0.1,0-0.1,0-0.2s0-0.2,0-0.2c0-0.1,0-0.1,0-0.2c0-0.1,0-0.2,0-0.2h4.8
			c0,0.1,0,0.1,0,0.2s0,0.1,0,0.2s0,0.2,0,0.2c0,0.1,0,0.2,0,0.2h-1.9v6.4c-0.2,0-0.3,0-0.5,0c-0.2,0-0.4,0-0.5,0V14.9z"/>
		<path fill="#D0E0E0" d="M34.8,14c0.1,0,0.3,0,0.4,0c0.1,0,0.2,0,0.4,0c0.1,0,0.2,0,0.4,0c0.1,0,0.3,0,0.4,0c0.3,0,0.7,0,1,0.1
			c0.3,0.1,0.6,0.2,0.9,0.4c0.3,0.2,0.5,0.4,0.6,0.7c0.2,0.3,0.2,0.7,0.2,1.1c0,0.3,0,0.5-0.1,0.7s-0.2,0.4-0.3,0.6
			c-0.1,0.2-0.3,0.3-0.5,0.4c-0.2,0.1-0.3,0.2-0.5,0.3l-0.1,0.1l2.1,3.1c-0.2,0-0.4,0-0.6,0c-0.2,0-0.4,0-0.5,0l-2.3-3.4v0l0.1,0
			c0.2,0,0.4-0.1,0.6-0.2c0.2-0.1,0.4-0.2,0.6-0.3c0.2-0.1,0.3-0.3,0.4-0.5c0.1-0.2,0.2-0.4,0.2-0.7c0-0.5-0.1-0.8-0.4-1.1
			s-0.7-0.4-1.2-0.4c-0.1,0-0.2,0-0.3,0c-0.1,0-0.2,0-0.3,0v6.5c-0.1,0-0.2,0-0.2,0c-0.1,0-0.2,0-0.3,0s-0.2,0-0.3,0
			c-0.1,0-0.2,0-0.3,0V14z"/>
		<path fill="#D0E0E0" d="M41.1,14h4c0,0.1,0,0.3,0,0.4c0,0.1,0,0.2,0,0.2c0,0.1,0,0.2,0,0.2h-3V17h2.4c0,0.1,0,0.1,0,0.2
			c0,0.1,0,0.2,0,0.2c0,0.1,0,0.2,0,0.2s0,0.2,0,0.2h-2.4v2.5h3c0,0.1,0,0.3,0,0.4c0,0.1,0,0.2,0,0.2c0,0.1,0,0.2,0,0.2h-4.1V14z"/>
		<path fill="#D0E0E0" d="M51.1,17.5c0.1,0,0.2,0,0.3,0s0.2,0,0.3,0s0.2,0,0.3,0c0.1,0,0.2,0,0.2,0V21c-0.1,0.1-0.3,0.1-0.5,0.2
			s-0.3,0.1-0.5,0.1c-0.2,0-0.4,0-0.5,0.1s-0.4,0-0.5,0c-0.5,0-1-0.1-1.5-0.3c-0.4-0.2-0.8-0.4-1.1-0.7c-0.3-0.3-0.5-0.7-0.7-1.2
			c-0.2-0.5-0.2-1-0.2-1.6c0-0.6,0.1-1.1,0.2-1.6c0.2-0.5,0.4-0.9,0.7-1.2c0.3-0.3,0.7-0.6,1.1-0.8c0.4-0.2,0.9-0.3,1.4-0.3
			c0.4,0,0.7,0,1,0.1c0.3,0.1,0.5,0.1,0.8,0.2c0,0.2,0,0.3-0.1,0.4s-0.1,0.3-0.2,0.4c-0.2-0.1-0.4-0.1-0.6-0.2
			c-0.2,0-0.5-0.1-0.8-0.1c-0.4,0-0.7,0.1-1,0.2c-0.3,0.1-0.5,0.3-0.7,0.6c-0.2,0.2-0.4,0.6-0.5,0.9c-0.1,0.4-0.2,0.8-0.2,1.2
			c0,0.5,0.1,0.9,0.2,1.2c0.1,0.3,0.3,0.6,0.5,0.9c0.2,0.2,0.5,0.4,0.8,0.5s0.6,0.2,1,0.2c0.2,0,0.4,0,0.6,0c0.2,0,0.3-0.1,0.4-0.1
			V17.5z"/>
		<path fill="#D0E0E0" d="M57.6,19.6h-2.8l-0.5,1.7c-0.1,0-0.2,0-0.3,0s-0.2,0-0.3,0c-0.1,0-0.2,0-0.3,0s-0.2,0-0.2,0l2.4-7.3
			c0.1,0,0.2,0,0.3,0c0.1,0,0.2,0,0.3,0c0.1,0,0.2,0,0.3,0s0.2,0,0.3,0l2.4,7.3c-0.1,0-0.2,0-0.3,0c-0.1,0-0.2,0-0.3,0
			c-0.1,0-0.2,0-0.3,0s-0.2,0-0.3,0L57.6,19.6z M55.1,18.7h2.2L56.2,15L55.1,18.7z"/>
		<path fill="#D0E0E0" d="M60.6,14c0.1,0,0.3,0,0.4,0c0.1,0,0.2,0,0.4,0c0.1,0,0.2,0,0.4,0c0.1,0,0.3,0,0.4,0c0.3,0,0.7,0,1,0.1
			c0.3,0.1,0.6,0.2,0.9,0.4c0.3,0.2,0.5,0.4,0.6,0.7c0.2,0.3,0.2,0.7,0.2,1.1c0,0.3,0,0.5-0.1,0.7s-0.2,0.4-0.3,0.6
			c-0.1,0.2-0.3,0.3-0.5,0.4c-0.2,0.1-0.3,0.2-0.5,0.3l-0.1,0.1l2.1,3.1c-0.2,0-0.4,0-0.6,0c-0.2,0-0.4,0-0.5,0l-2.3-3.4v0l0.1,0
			c0.2,0,0.4-0.1,0.6-0.2c0.2-0.1,0.4-0.2,0.6-0.3c0.2-0.1,0.3-0.3,0.4-0.5c0.1-0.2,0.2-0.4,0.2-0.7c0-0.5-0.1-0.8-0.4-1.1
			s-0.7-0.4-1.2-0.4c-0.1,0-0.2,0-0.3,0c-0.1,0-0.2,0-0.3,0v6.5c-0.1,0-0.2,0-0.2,0c-0.1,0-0.2,0-0.3,0s-0.2,0-0.3,0
			c-0.1,0-0.2,0-0.3,0V14z"/>
		<path fill="#D0E0E0" d="M72.5,21.4c-0.5,0-1-0.1-1.4-0.3s-0.7-0.4-1-0.8c-0.3-0.3-0.4-0.7-0.6-1.2s-0.2-1-0.2-1.5s0.1-1,0.2-1.5
			c0.1-0.5,0.3-0.9,0.6-1.2c0.3-0.3,0.6-0.6,1-0.8s0.8-0.3,1.4-0.3s1,0.1,1.4,0.3c0.4,0.2,0.7,0.5,1,0.8c0.3,0.3,0.4,0.7,0.6,1.2
			c0.1,0.5,0.2,1,0.2,1.5s-0.1,1.1-0.2,1.5c-0.1,0.5-0.3,0.9-0.6,1.2c-0.3,0.3-0.6,0.6-1,0.8C73.4,21.3,73,21.4,72.5,21.4z
			 M72.5,20.5c0.3,0,0.6-0.1,0.9-0.2c0.2-0.1,0.5-0.3,0.6-0.6c0.2-0.2,0.3-0.5,0.4-0.9c0.1-0.4,0.1-0.7,0.1-1.2c0-0.4,0-0.8-0.1-1.2
			s-0.2-0.7-0.4-0.9c-0.2-0.2-0.4-0.4-0.6-0.6c-0.2-0.1-0.5-0.2-0.9-0.2s-0.6,0.1-0.9,0.2c-0.2,0.1-0.5,0.3-0.6,0.6
			c-0.2,0.2-0.3,0.5-0.4,0.9s-0.1,0.8-0.1,1.2c0,0.4,0,0.8,0.1,1.2c0.1,0.4,0.2,0.7,0.4,0.9c0.2,0.3,0.4,0.4,0.6,0.6
			C71.8,20.4,72.1,20.5,72.5,20.5z"/>
		<path fill="#D0E0E0" d="M81.3,14.9h-1.9c0-0.1,0-0.1,0-0.2s0-0.2,0-0.2c0-0.1,0-0.1,0-0.2c0-0.1,0-0.2,0-0.2h4.8
			c0,0.1,0,0.1,0,0.2s0,0.1,0,0.2s0,0.2,0,0.2c0,0.1,0,0.2,0,0.2h-1.9v6.4c-0.2,0-0.3,0-0.5,0c-0.2,0-0.4,0-0.5,0V14.9z"/>
		<path fill="#D0E0E0" d="M85.7,14c0.1,0,0.3,0,0.4,0c0.1,0,0.2,0,0.4,0c0.1,0,0.2,0,0.4,0c0.1,0,0.3,0,0.4,0c0.3,0,0.7,0,1,0.1
			c0.3,0.1,0.6,0.2,0.9,0.4c0.3,0.2,0.5,0.4,0.6,0.7c0.2,0.3,0.2,0.7,0.2,1.1c0,0.3,0,0.5-0.1,0.7s-0.2,0.4-0.3,0.6
			c-0.1,0.2-0.3,0.3-0.5,0.4c-0.2,0.1-0.3,0.2-0.5,0.3l-0.1,0.1l2.1,3.1c-0.2,0-0.4,0-0.6,0c-0.2,0-0.4,0-0.5,0l-2.3-3.4v0l0.1,0
			c0.2,0,0.4-0.1,0.6-0.2c0.2-0.1,0.4-0.2,0.6-0.3c0.2-0.1,0.3-0.3,0.4-0.5c0.1-0.2,0.2-0.4,0.2-0.7c0-0.5-0.1-0.8-0.4-1.1
			s-0.7-0.4-1.2-0.4c-0.1,0-0.2,0-0.3,0c-0.1,0-0.2,0-0.3,0v6.5c-0.1,0-0.2,0-0.2,0c-0.1,0-0.2,0-0.3,0s-0.2,0-0.3,0
			c-0.1,0-0.2,0-0.3,0V14z"/>
		<path fill="#D0E0E0" d="M94.7,21.4c-0.5,0-1-0.1-1.4-0.3s-0.7-0.4-1-0.8c-0.3-0.3-0.4-0.7-0.6-1.2s-0.2-1-0.2-1.5s0.1-1,0.2-1.5
			c0.1-0.5,0.3-0.9,0.6-1.2c0.3-0.3,0.6-0.6,1-0.8s0.8-0.3,1.4-0.3s1,0.1,1.4,0.3c0.4,0.2,0.7,0.5,1,0.8c0.3,0.3,0.4,0.7,0.6,1.2
			c0.1,0.5,0.2,1,0.2,1.5s-0.1,1.1-0.2,1.5c-0.1,0.5-0.3,0.9-0.6,1.2c-0.3,0.3-0.6,0.6-1,0.8C95.7,21.3,95.2,21.4,94.7,21.4z
			 M94.7,20.5c0.3,0,0.6-0.1,0.9-0.2c0.2-0.1,0.5-0.3,0.6-0.6c0.2-0.2,0.3-0.5,0.4-0.9c0.1-0.4,0.1-0.7,0.1-1.2c0-0.4,0-0.8-0.1-1.2
			s-0.2-0.7-0.4-0.9c-0.2-0.2-0.4-0.4-0.6-0.6c-0.2-0.1-0.5-0.2-0.9-0.2s-0.6,0.1-0.9,0.2c-0.2,0.1-0.5,0.3-0.6,0.6
			c-0.2,0.2-0.3,0.5-0.4,0.9s-0.1,0.8-0.1,1.2c0,0.4,0,0.8,0.1,1.2c0.1,0.4,0.2,0.7,0.4,0.9c0.2,0.3,0.4,0.4,0.6,0.6
			C94.1,20.4,94.3,20.5,94.7,20.5z"/>
		<path fill="#D0E0E0" d="M104.2,20.2c0.1,0.3,0.2,0.6,0.3,0.8c-0.3,0.1-0.6,0.2-0.9,0.3c-0.3,0.1-0.6,0.1-1,0.1
			c-0.5,0-1-0.1-1.4-0.3c-0.4-0.2-0.8-0.4-1.1-0.7c-0.3-0.3-0.5-0.7-0.7-1.2c-0.2-0.5-0.2-1-0.2-1.5c0-0.6,0.1-1.1,0.2-1.6
			c0.2-0.5,0.4-0.9,0.7-1.2c0.3-0.3,0.6-0.6,1.1-0.8c0.4-0.2,0.9-0.3,1.4-0.3c0.4,0,0.7,0,1,0.1c0.3,0.1,0.5,0.1,0.7,0.2
			c0,0.2,0,0.3-0.1,0.4c0,0.1-0.1,0.3-0.2,0.4c-0.1,0-0.2-0.1-0.3-0.1c-0.1,0-0.2-0.1-0.3-0.1c-0.1,0-0.2,0-0.4,0
			c-0.1,0-0.3,0-0.5,0c-0.7,0-1.3,0.3-1.7,0.7c-0.4,0.5-0.6,1.2-0.6,2.2c0,0.5,0.1,0.9,0.2,1.2c0.1,0.4,0.3,0.6,0.5,0.9
			c0.2,0.2,0.5,0.4,0.8,0.5c0.3,0.1,0.6,0.2,1,0.2c0.3,0,0.5,0,0.8-0.1C103.8,20.3,104,20.3,104.2,20.2z"/>
		<path fill="#D0E0E0" d="M108.7,21.4c-0.5,0-1-0.1-1.4-0.3s-0.7-0.4-1-0.8c-0.3-0.3-0.4-0.7-0.6-1.2s-0.2-1-0.2-1.5s0.1-1,0.2-1.5
			c0.1-0.5,0.3-0.9,0.6-1.2c0.3-0.3,0.6-0.6,1-0.8s0.8-0.3,1.4-0.3s1,0.1,1.4,0.3c0.4,0.2,0.7,0.5,1,0.8c0.3,0.3,0.4,0.7,0.6,1.2
			c0.1,0.5,0.2,1,0.2,1.5s-0.1,1.1-0.2,1.5c-0.1,0.5-0.3,0.9-0.6,1.2c-0.3,0.3-0.6,0.6-1,0.8C109.7,21.3,109.2,21.4,108.7,21.4z
			 M108.7,20.5c0.3,0,0.6-0.1,0.9-0.2c0.2-0.1,0.5-0.3,0.6-0.6c0.2-0.2,0.3-0.5,0.4-0.9c0.1-0.4,0.1-0.7,0.1-1.2
			c0-0.4,0-0.8-0.1-1.2s-0.2-0.7-0.4-0.9c-0.2-0.2-0.4-0.4-0.6-0.6c-0.2-0.1-0.5-0.2-0.9-0.2s-0.6,0.1-0.9,0.2
			c-0.2,0.1-0.5,0.3-0.6,0.6c-0.2,0.2-0.3,0.5-0.4,0.9s-0.1,0.8-0.1,1.2c0,0.4,0,0.8,0.1,1.2c0.1,0.4,0.2,0.7,0.4,0.9
			c0.2,0.3,0.4,0.4,0.6,0.6C108.1,20.4,108.4,20.5,108.7,20.5z"/>
	</g>
</g>
</svg>
